# Blender v2.80 (sub 75) OBJ File: 'court.blend'
# www.blender.org
mtllib runway.mtl
o Plane.001
v 20.000000 0.000000 0.000000
v 0.000000 0.000000 0.000000
v -10.000000 0.000000 0.000000
v 20.000000 0.000000 -5.000000
v 0.000000 0.000000 -5.000000
v -10.000000 0.000000 -5.000000
v 20.000000 0.000000 5.000000
v 0.000000 0.000000 5.000000
v -10.000000 0.000000 5.000000
vt 0.250000 0.500000
vt 0.250000 0.000000
vt 0.500000 0.000000
vt 0.500000 0.500000
vt 0.250000 0.750000
vt 0.500000 0.750000
vt 0.750000 0.500000
vt 0.750000 0.750000
vt 0.750000 0.000000
vn 0.0000 1.0000 0.0000
usemtl Material.003
s off
f 8/1/1 7/2/1 1/3/1 2/4/1
f 9/5/1 8/1/1 2/4/1 3/6/1
f 3/6/1 2/4/1 5/7/1 6/8/1
f 2/4/1 1/3/1 4/9/1 5/7/1
